<?xml version="1.0" standalone="no"?>
<!DOCTYPE svg PUBLIC "-//W3C//DTD SVG 20010904//EN"
 "http://www.w3.org/TR/2001/REC-SVG-20010904/DTD/svg10.dtd">
<svg version="1.0" xmlns="http://www.w3.org/2000/svg"
 width="512.000000pt" height="512.000000pt" viewBox="0 0 512.000000 512.000000"
 preserveAspectRatio="xMidYMid meet">
<metadata>
Created by potrace 1.11, written by Peter Selinger 2001-2013
</metadata>
<g transform="translate(0.000000,512.000000) scale(0.100000,-0.100000)"
fill="#000000" stroke="none">
<path d="M3170 4028 c-681 -43 -1287 -358 -1660 -863 -228 -309 -371 -685
-424 -1115 -14 -111 -16 -579 -3 -640 3 -14 11 -65 17 -115 14 -99 29 -137 64
-160 29 -19 38 -21 261 -51 28 -3 145 -7 260 -9 281 -3 406 8 600 52 61 13
119 26 130 29 79 16 293 97 410 154 173 84 293 161 421 267 377 311 618 719
729 1231 34 153 35 164 51 342 8 90 8 392 0 458 -3 26 -8 76 -11 112 -4 36 -8
72 -10 80 -2 8 -7 35 -10 60 -8 56 -33 101 -66 117 -87 42 -481 69 -759 51z"/>
</g>
</svg>
